PathFileType	4	(X/Y/Z)	C:\Users\WrightLab\Desktop\Jo\P4V131.trc
DataRate	CameraRate	NumFrames	NumMarkers	Units	OrigDataRate	OrigDataStartFrame	OrigNumFrames
100.00	100.00	       26	19	mm	100.00	63	       497
Frame#	Time	Headset_Front			Headset_Back			Headset_Left			Headset_Right			Left_Shoulder			Right_Shoulder			Sternum			C7			Left Elbow			Right Elbow			Left Wrist			Right Wrist			Left ASIS			Right ASIS			S2			Left Knee			Right Knee			Left Ankle			Right Ankle			
		X1	Y1	Z1	X2	Y2	Z2	X3	Y3	Z3	X4	Y4	Z4	X5	Y5	Z5	X6	Y6	Z6	X7	Y7	Z7	X8	Y8	Z8	X9	Y9	Z9	X10	Y10	Z10	X11	Y11	Z11	X12	Y12	Z12	X13	Y13	Z13	X14	Y14	Z14	X15	Y15	Z15	X16	Y16	Z16	X17	Y17	Z17	X18	Y18	Z18	X19	Y19	Z19	

63	0.620																									-71.69595	1136.95508	-1161.17639				-136.12582	849.64117	-1052.46631	-648.37585	823.36517	-1354.57043	-231.86987	958.70715	-1171.97021	-535.91473	995.11096	-1293.80090				-171.34628	483.86298	-1213.88196	-600.95618	530.02002	-1243.84045							
64	0.630																									-78.57465	1138.42041	-1153.49963				-142.78867	851.84467	-1044.72168	-656.97614	826.54810	-1344.64514	-240.52611	961.76434	-1159.98584	-543.36212	996.77521	-1288.73230				-181.51053	483.12125	-1195.48816	-602.86481	529.56805	-1241.56958							
65	0.640																									-85.95214	1140.02625	-1146.36536				-150.03549	853.06555	-1037.68579	-663.24402	828.82416	-1334.63257	-246.87068	963.37878	-1156.36121	-549.46930	998.32764	-1282.86340				-192.64719	483.13815	-1177.77600	-605.22675	529.15955	-1238.87048							
66	0.650																									-92.43483	1141.96997	-1140.39417				-157.64505	855.94366	-1030.48840	-671.41290	831.99396	-1324.26733	-253.15247	965.30695	-1147.74756	-556.44440	1000.31116	-1277.52905				-202.45752	486.15491	-1158.22791	-607.04651	528.99579	-1236.80518							
67	0.660																									-98.65842	1143.95544	-1135.08899				-164.28206	856.85132	-1022.54358	-678.65363	834.22473	-1313.27185	-259.05814	968.04761	-1143.89539	-561.74146	1001.50653	-1271.87915				-214.54163	487.48090	-1140.35327	-608.03461	528.48309	-1234.16443							
68	0.670																-531.15082	1479.92786	-1298.87158							-104.73110	1145.11536	-1127.58948				-171.11504	859.37177	-1016.38275	-686.32324	836.91003	-1302.57568	-265.91943	972.16626	-1132.51624	-567.18591	1002.71753	-1266.57849				-225.86737	491.90097	-1121.75659	-609.46466	528.32184	-1232.76233							
69	0.680																-537.11005	1482.11523	-1291.38232				-383.23459	1520.90991	-1273.62463	-111.49123	1146.72388	-1121.08887				-177.90553	860.99548	-1009.75079	-694.14490	840.65021	-1291.34546	-271.41141	975.19818	-1125.50928	-572.38135	1003.80988	-1259.48755				-237.62665	494.59567	-1103.75098	-610.39532	527.36823	-1229.57996							
70	0.690																-542.95575	1484.23730	-1283.53540				-389.10806	1522.96191	-1266.31787	-117.14788	1148.65295	-1115.26611				-185.05399	862.94556	-1003.20056	-701.28400	842.99640	-1279.53113	-276.87170	978.22614	-1116.73511	-578.48364	1004.97144	-1254.12683				-250.38174	498.29956	-1085.71497	-612.12390	527.58112	-1228.03918							
71	0.700																-548.70740	1486.17212	-1275.62366				-394.76242	1525.34766	-1259.66199	-123.58078	1149.45947	-1107.36609				-190.96819	864.82684	-996.14886	-708.49310	845.46399	-1268.02173	-281.32935	981.89648	-1109.13977	-583.57043	1005.83331	-1246.67761				-262.59491	501.39633	-1066.90222	-613.59064	527.15570	-1225.47522							
72	0.710																-554.42163	1487.67358	-1267.25366				-400.42740	1526.95544	-1252.65869	-129.36128	1151.32275	-1101.20874	-674.72968	1139.45532	-1350.78772	-197.23183	866.62585	-990.21417	-715.84222	849.55695	-1257.56104	-286.70258	984.13733	-1104.61133	-588.92908	1007.36346	-1240.75012				-275.76193	506.31271	-1049.99072	-614.12677	526.33716	-1223.69678							
73	0.720																-559.78253	1489.79089	-1259.49609				-405.98694	1528.43872	-1245.21802	-134.88130	1153.17126	-1096.00745	-682.52625	1142.07202	-1341.59119	-203.32782	868.54242	-984.23639	-723.28149	852.49109	-1244.72839	-291.90353	986.69305	-1100.48914	-593.67950	1007.14880	-1234.36560				-287.85028	510.75470	-1032.66199	-615.17499	526.21753	-1221.79626	-180.54385	207.44769	-1420.50122				
74	0.730				-430.79401	1742.54590	-1265.31885										-565.03363	1491.70947	-1251.82288				-411.25839	1529.98193	-1237.92822	-140.14934	1154.88245	-1090.36255	-690.26337	1144.24866	-1332.26074	-209.87958	870.04028	-978.26593	-730.53906	855.31360	-1232.48181	-295.56427	988.92981	-1091.96765	-598.41486	1008.06238	-1226.38184				-300.27075	515.47119	-1015.46497	-616.22076	526.88251	-1219.78625	-196.17155	201.96074	-1397.47546				
75	0.740	-557.74316	1672.99109	-1070.35889	-436.27289	1743.81189	-1257.68176										-570.35583	1493.02649	-1243.49146				-416.46848	1531.35718	-1230.58032	-144.96230	1155.46790	-1082.71155	-697.93335	1146.00854	-1322.30347	-215.14931	870.58203	-971.52008	-738.11469	859.18341	-1220.80554	-299.87729	990.57495	-1083.36902	-603.75476	1008.89716	-1220.92749				-311.47473	520.29169	-999.61914	-617.68579	526.17505	-1217.73669	-211.13429	196.91614	-1376.88953				
76	0.750	-562.25299	1674.06934	-1062.97668	-441.58411	1745.14478	-1250.25085										-575.50977	1494.43555	-1235.40710	-468.97467	1420.49951	-1073.26746	-421.62549	1532.49243	-1222.92737	-150.41780	1156.78259	-1077.41406	-706.35730	1148.74597	-1313.40430	-220.65645	872.39807	-966.54309	-745.61615	861.18152	-1207.57275	-303.62830	992.40247	-1078.85034	-608.16107	1009.08545	-1213.03235				-322.76016	524.90173	-984.06073	-619.29608	525.35004	-1214.78442	-227.48485	189.90581	-1356.22119				
77	0.760	-566.70160	1674.98621	-1055.06616	-446.69656	1746.45349	-1242.92322										-580.46136	1495.64111	-1227.00659	-474.54910	1422.11194	-1065.89709	-426.63495	1533.36768	-1215.40613	-155.14438	1157.37598	-1070.65564	-712.64673	1150.26563	-1303.33252	-226.15375	873.08008	-960.19458	-752.70441	863.86975	-1196.09741	-307.39758	994.96100	-1069.33765	-611.97766	1008.98541	-1206.20349				-332.03787	530.57098	-970.09863	-620.69000	524.72040	-1211.93689	-244.29214	183.06752	-1333.13647				
78	0.770	-571.02972	1675.56067	-1046.76404	-451.73138	1747.37329	-1234.90039										-585.35358	1496.67651	-1218.72168	-477.71567	1422.44971	-1058.23352	-431.51843	1534.20667	-1208.17542	-159.41718	1158.01672	-1065.08691	-719.61890	1151.32605	-1293.36145	-230.98602	874.18640	-954.30792	-760.68030	866.48065	-1183.04614	-311.53714	997.13818	-1062.40833	-617.67236	1009.82568	-1199.01978				-342.59229	536.41632	-954.90198	-622.06549	524.58136	-1209.66223	-261.63379	175.81358	-1310.85535				
79	0.780	-575.28674	1676.11890	-1039.08289	-456.61853	1748.08801	-1227.66174										-590.21448	1497.55676	-1210.48401	-481.26526	1423.43811	-1051.27844	-436.28940	1534.76965	-1200.52307	-163.52060	1158.85547	-1060.50403	-726.57556	1152.53455	-1283.82520	-235.95045	874.86719	-948.72064	-767.31061	869.34772	-1170.54993	-316.66620	998.78949	-1055.95776	-620.96686	1008.60358	-1191.45703				-351.34845	541.21320	-942.55414	-623.61902	524.17145	-1207.28589	-278.83121	167.24672	-1288.00452				
80	0.790	-579.35077	1676.42847	-1031.22998	-461.31107	1748.65442	-1220.18005										-595.03223	1497.96411	-1201.83374	-486.19925	1424.85681	-1043.83215	-440.92435	1535.58972	-1193.42590	-167.75423	1158.92712	-1054.66333	-733.23962	1153.80298	-1273.89465	-240.36928	875.14624	-942.80237	-774.65271	871.24445	-1156.84167	-321.63446	999.30261	-1050.93628	-624.56390	1008.89545	-1184.46851				-360.11472	546.28613	-929.48560	-624.96777	523.77362	-1204.49121	-297.14056	158.38779	-1261.49902				
81	0.800	-583.37488	1676.81091	-1023.74750	-465.89145	1749.01392	-1212.79016										-599.67731	1498.61877	-1193.68384	-487.60468	1423.60229	-1035.36621	-445.61230	1535.73242	-1185.48706	-171.37938	1158.49756	-1048.15527	-740.19989	1155.00586	-1264.45801	-244.27534	875.57587	-936.71088	-781.40839	874.10010	-1144.16443	-325.46490	999.82196	-1046.13330	-629.80060	1008.77112	-1175.63184				-368.91199	550.62543	-917.67212	-626.16296	523.30078	-1201.76782	-315.64645	150.29153	-1237.82849				
82	0.810	-587.29468	1676.90442	-1015.26349	-470.18646	1749.29224	-1205.11597										-604.12952	1498.97949	-1185.02344	-492.83484	1424.64233	-1027.53931	-450.01230	1535.88770	-1177.86694	-175.30354	1158.65710	-1042.76379	-746.25024	1155.15002	-1253.47778	-247.96686	875.35327	-930.47266	-788.89166	875.67133	-1131.10938	-329.56973	1001.89606	-1033.03601	-634.40594	1009.24634	-1166.05798				-374.83939	554.85040	-905.10303	-627.23187	522.41174	-1199.01257	-333.69229	138.49222	-1212.40808				
83	0.820	-590.97992	1677.12756	-1007.64417	-474.34210	1749.15576	-1196.91833										-608.62073	1499.13293	-1175.88586	-496.75809	1425.65698	-1019.60858	-454.41437	1536.17212	-1170.43640	-178.93127	1158.39319	-1037.40161	-752.57324	1155.79089	-1243.20325	-251.56862	875.77429	-925.52472	-795.43774	878.00970	-1117.75818	-334.43686	1002.12756	-1027.96167	-638.12305	1008.97607	-1156.71252				-382.74155	557.95526	-894.77222	-628.41125	521.72302	-1195.61145	-352.05228	129.85190	-1185.29639				
84	0.830	-594.59875	1676.93445	-999.31238	-478.26511	1749.02954	-1189.52368										-612.93506	1499.06067	-1167.50842	-498.96613	1424.40125	-1011.60132	-458.73730	1536.07446	-1162.91235	-182.22914	1157.93164	-1031.98914	-758.63367	1156.28638	-1233.21008	-254.64154	875.39752	-920.06268	-802.33813	879.75592	-1104.59229	-339.64047	1001.83740	-1024.04578	-643.25769	1008.10980	-1151.56287				-389.28452	561.14917	-883.27521	-629.68286	521.29907	-1192.58752	-370.01715	120.24607	-1158.49976				
85	0.840	-597.94263	1677.05762	-991.57629	-482.05710	1748.56372	-1181.66443										-617.20770	1498.70679	-1158.71240	-501.76563	1424.13953	-1003.58661	-462.88455	1535.74377	-1154.87817	-186.15764	1157.62512	-1026.58521	-764.81427	1156.77112	-1222.42639	-257.95255	874.23749	-913.26404	-808.83447	881.46179	-1091.82300	-341.36063	1004.01715	-1011.99988	-647.96783	1006.74677	-1146.88745				-395.96359	562.63763	-873.68158	-630.91669	521.07800	-1189.59705	-387.37024	110.72994	-1132.15100				
86	0.850	-601.24811	1676.64307	-983.39594	-381.05804	1715.62646	-1161.00317										-621.31549	1498.42017	-1149.45691	-506.05978	1423.29639	-995.55939	-466.91306	1535.36926	-1146.90210	-189.38255	1156.71423	-1020.12775	-771.01385	1156.91663	-1211.05725	-260.46872	873.40283	-906.95569	-815.05304	882.56134	-1077.51074	-346.14233	1002.94507	-1005.32050	-652.69568	1007.37012	-1135.54895				-400.69083	565.61432	-864.12762	-632.08563	520.88910	-1186.54529	-404.90848	101.71490	-1103.62170				
87	0.860	-604.36298	1676.35132	-974.79834	-384.11237	1714.89905	-1152.49561										-625.24091	1497.92065	-1140.07568	-509.32718	1423.59497	-987.18896	-470.90140	1534.79333	-1138.42725	-192.48445	1156.45239	-1015.71527	-775.75647	1156.66101	-1199.97681	-262.69754	872.49890	-900.49811	-821.23041	883.92877	-1064.92139	-349.60510	1002.82574	-996.80670	-656.33813	1006.46088	-1127.02393				-407.01752	565.40808	-854.76587	-633.30011	520.41089	-1183.28003	-422.19495	92.34930	-1073.84546				
88	0.870	-607.36792	1675.92419	-966.82788	-387.13785	1713.70911	-1144.08789										-629.07025	1497.29419	-1130.95972	-510.71640	1421.62915	-978.35022	-474.74615	1533.98889	-1130.81189	-196.25450	1155.12207	-1008.13721	-781.63165	1156.43079	-1188.85876	-265.21216	871.52344	-895.01025	-827.39612	884.96246	-1051.00647	-354.57547	1001.50610	-989.87939	-660.02618	1005.31744	-1119.48474				-411.79892	566.00665	-846.06250	-634.63727	519.63293	-1179.44446	-440.48471	82.90465	-1044.08215				
